<svg xmlns="http://www.w3.org/2000/svg" xmlns:xlink="http://www.w3.org/1999/xlink" width="500" zoomAndPan="magnify" viewBox="0 0 375 374.999991" height="500" preserveAspectRatio="xMidYMid meet" version="1.0"><defs><g/><clipPath id="7b10a1c99f"><path d="M 28.773438 259.585938 L 88.773438 259.585938 L 88.773438 311.335938 L 28.773438 311.335938 Z M 28.773438 259.585938 " clip-rule="nonzero"/></clipPath></defs><g fill="#000000" fill-opacity="1"><g transform="translate(44.706041, 305.097021)"><g/></g></g><g fill="#000000" fill-opacity="1"><g transform="translate(73.090968, 305.097021)"><g/></g></g><g fill="#000000" fill-opacity="1"><g transform="translate(101.483377, 305.097021)"><g><path d="M 76.46875 0 L 52.703125 0 L 33.984375 -14.59375 L 23.15625 -7.203125 L 23.15625 0 L 4.859375 0 L 4.859375 -43.625 L 23.15625 -43.625 L 23.15625 -23.4375 L 52.53125 -43.625 L 76.46875 -43.625 L 45.234375 -22.28125 Z M 76.46875 0 "/></g></g></g><g fill="#af9500" fill-opacity="1"><g transform="translate(191.354468, 305.097021)"><g><path d="M 23.15625 0 L 4.859375 0 L 4.859375 -43.625 L 23.15625 -43.625 Z M 23.15625 0 "/></g></g></g><g fill="#000000" fill-opacity="1"><g transform="translate(232.323216, 305.097021)"><g><path d="M 55.78125 0 L 4.859375 0 L 4.859375 -43.625 L 23.15625 -43.625 L 23.15625 -10.796875 L 55.78125 -10.796875 Z M 55.78125 0 "/></g></g></g><g fill="#af9500" fill-opacity="1"><g transform="translate(302.260711, 305.097021)"><g><path d="M 23.15625 0 L 4.859375 0 L 4.859375 -43.625 L 23.15625 -43.625 Z M 23.15625 0 "/></g></g></g><g clip-path="url(#7b10a1c99f)"><path fill="#af9500" d="M 28.777344 311.414062 L 67.546875 275.042969 L 58.667969 259.640625 L 43.683594 285.597656 Z M 35.535156 311.554688 L 33.480469 311.554688 L 58.699219 288.300781 L 66.992188 296.191406 Z M 88.640625 311.554688 L 61.335938 285.8125 L 69.386719 278.207031 Z M 88.640625 311.554688 " fill-opacity="1" fill-rule="evenodd"/></g></svg>